<?xml version="1.0" encoding="UTF-8" standalone="no"?>
<!-- Created with Inkscape (http://www.inkscape.org/) -->

<svg
   xmlns:dc="http://purl.org/dc/elements/1.1/"
   xmlns:cc="http://creativecommons.org/ns#"
   xmlns:rdf="http://www.w3.org/1999/02/22-rdf-syntax-ns#"
   xmlns:svg="http://www.w3.org/2000/svg"
   xmlns="http://www.w3.org/2000/svg"
   xmlns:sodipodi="http://sodipodi.sourceforge.net/DTD/sodipodi-0.dtd"
   xmlns:inkscape="http://www.inkscape.org/namespaces/inkscape"
   width="744.09448819"
   height="1052.3622047"
   id="svg4198"
   version="1.1"
   inkscape:version="0.48.4 r9939"
   sodipodi:docname="New document 2">
  <defs
     id="defs4200" />
  <sodipodi:namedview
     id="base"
     pagecolor="#ffffff"
     bordercolor="#666666"
     borderopacity="1.0"
     inkscape:pageopacity="0.0"
     inkscape:pageshadow="2"
     inkscape:zoom="0.25806607"
     inkscape:cx="-313.01091"
     inkscape:cy="332.89544"
     inkscape:document-units="px"
     inkscape:current-layer="layer1"
     showgrid="false"
     inkscape:window-width="1600"
     inkscape:window-height="837"
     inkscape:window-x="-32000"
     inkscape:window-y="-32000"
     inkscape:window-maximized="0" />
  <metadata
     id="metadata4203">
    <rdf:RDF>
      <cc:Work
         rdf:about="">
        <dc:format>image/svg+xml</dc:format>
        <dc:type
           rdf:resource="http://purl.org/dc/dcmitype/StillImage" />
        <dc:title></dc:title>
      </cc:Work>
    </rdf:RDF>
  </metadata>
  <g
     inkscape:label="Layer 1"
     inkscape:groupmode="layer"
     id="layer1">
    <path
       inkscape:export-ydpi="4.1727552"
       inkscape:export-xdpi="4.1727552"
       inkscape:export-filename="C:\Users\baldwinjoe\Desktop\KingBingo Mockups\crown_icon.png"
       sodipodi:nodetypes="cccccccc"
       inkscape:connector-curvature="0"
       id="path3488-5-0-6"
       d="M 19.401644,1064.4516 C -144.20012,716.07464 -279.03583,424.28245 -279.03583,424.28245 -133.95585,473.23808 72.565588,551.84008 72.565588,551.84008 134.14513,385.35119 194.302,229.04615 194.302,229.04615 347.04844,334.90694 495.63282,414.9772 495.63282,414.9772 565.93453,318.32189 650.0467,123.01516 650.0467,123.01516 c 84.44291,510.19807 103.27539,625.35548 103.27539,625.35548 0,0 -333.93269,148.21257 -733.920446,316.08096 z"
       style="fill:none;stroke:#000000;stroke-width:30;stroke-linecap:butt;stroke-linejoin:miter;stroke-opacity:1;stroke-miterlimit:4;stroke-dasharray:none" />
    <path
       inkscape:export-ydpi="4.1727552"
       inkscape:export-xdpi="4.1727552"
       inkscape:export-filename="C:\Users\baldwinjoe\Desktop\KingBingo Mockups\crown_icon.png"
       transform="matrix(7.7788395,-1.6332756,1.4998845,9.9007436,-40586.185,36.520567)"
       sodipodi:end="6.2828778"
       sodipodi:start="0"
       d="m 5059,918.86218 a 7.5,10.5 0 1 1 0,-0.003 l -7.5,0.003 z"
       sodipodi:ry="10.5"
       sodipodi:rx="7.5"
       sodipodi:cy="918.86218"
       sodipodi:cx="5051.5"
       id="path3492-3-5-0"
       style="fill:#ffffff;fill-opacity:1;stroke:none"
       sodipodi:type="arc" />
    <path
       inkscape:export-ydpi="4.1727552"
       inkscape:export-xdpi="4.1727552"
       inkscape:export-filename="C:\Users\baldwinjoe\Desktop\KingBingo Mockups\crown_icon.png"
       transform="matrix(7.1961462,-3.752861,3.7238253,9.1008464,-39154.521,11256.321)"
       sodipodi:end="6.2828778"
       sodipodi:start="0"
       d="m 5059,918.86218 a 7.5,10.5 0 1 1 0,-0.003 l -7.5,0.003 z"
       sodipodi:ry="10.5"
       sodipodi:rx="7.5"
       sodipodi:cy="918.86218"
       sodipodi:cx="5051.5"
       id="path3492-1-3-9-9"
       style="fill:#ffffff;fill-opacity:1;stroke:none;stroke-width:3.36535221;stroke-miterlimit:4;stroke-dasharray:none"
       sodipodi:type="arc" />
    <path
       inkscape:export-ydpi="4.1727552"
       inkscape:export-xdpi="4.1727552"
       inkscape:export-filename="C:\Users\baldwinjoe\Desktop\KingBingo Mockups\crown_icon.png"
       transform="matrix(12.863329,-5.3777147,4.4946706,13.904665,-68765.782,15079.74)"
       sodipodi:end="6.2828778"
       sodipodi:start="0"
       d="m 5059,918.86218 a 7.5,10.5 0 1 1 0,-0.003 l -7.5,0.003 z"
       sodipodi:ry="10.5"
       sodipodi:rx="7.5"
       sodipodi:cy="918.86218"
       sodipodi:cx="5051.5"
       id="path3492-7-3-09-3"
       style="fill:#ffffff;fill-opacity:1;stroke:none;stroke-width:1.40361648;stroke-miterlimit:4;stroke-dasharray:none"
       sodipodi:type="arc" />
    <path
       sodipodi:type="arc"
       style="fill:none;stroke:#000000;stroke-width:20;stroke-linejoin:round;stroke-miterlimit:4;stroke-dasharray:none"
       id="path4260"
       sodipodi:cx="-2714.2856"
       sodipodi:cy="732.36218"
       sodipodi:rx="765.71429"
       sodipodi:ry="571.42859"
       d="m -1948.5714,732.36218 a 765.71429,571.42859 0 1 1 0,-0.17572 l -765.7142,0.17572 z"
       sodipodi:start="0"
       sodipodi:end="6.2828778" />
    <path
       style="fill:none;stroke:#000000;stroke-width:1;stroke-linejoin:round;stroke-miterlimit:4;stroke-dasharray:none"
       d="m -2845.0386,1282.0739 c -287.8806,-41.1837 -516.5873,-195.3655 -592.789,-399.62655 -63.2343,-169.50155 -21.7582,-335.32812 119.6761,-478.4805 104.1022,-105.36688 237.3914,-173.8691 411.5426,-211.50689 52.7462,-11.3996 76.2344,-12.97282 194.2857,-13.01307 127.2332,-0.0434 137.8633,0.79629 202.4078,15.98799 226.451,53.29934 385.7825,155.62827 481.6071,309.30681 34.358,55.10143 64.5565,146.15122 64.5565,194.64031 l 0,19.64541 -379.3886,0 c -317.0539,0 -379.8852,1.29391 -382.4107,7.87511 -7.7057,20.081 3.7641,20.69632 385.7993,20.69632 l 376,0 0,19.08594 c 0,57.88457 -45.443,172.49891 -93.6707,236.25202 -32.5238,42.9939 -102.58,109.2382 -148.5078,140.4271 -85.9721,58.3825 -205.6089,106.0504 -326.3929,130.0475 -80.7661,16.0464 -231.8471,20.2314 -312.7154,8.6625 l 0,0 z"
       id="path4262"
       inkscape:connector-curvature="0" />
    <path
       style="fill:none;stroke:#000000;stroke-width:30;stroke-linejoin:round;stroke-miterlimit:4;stroke-dasharray:none"
       d="m 324.65417,827.56463 c -26.50552,-14.00591 -48.63655,-40.29443 -67.31933,-79.96579 -12.50874,-26.56129 -14.79756,-39.39322 -14.77919,-82.85715 0.0234,-55.40784 5.95854,-72.99326 34.15011,-101.18483 17.3921,-17.3921 41.11492,-24.2431 65.44345,-18.89966 25.42564,5.58441 64.54077,43.54404 83.39575,80.93216 15.12314,29.98815 16.86944,39.03887 16.92594,87.72376 0.0509,44.01217 -2.19391,58.61142 -11.86263,77.14286 -23.32529,44.70615 -64.37107,59.08175 -105.9541,37.10865 z"
       id="path5032"
       inkscape:connector-curvature="0"
       inkscape:export-filename="C:\Users\baldwinjoe\Desktop\KingBingo Mockups\crown_icon.png"
       inkscape:export-xdpi="4.1727552"
       inkscape:export-ydpi="4.1727552" />
    <path
       style="fill:none;stroke:#000000;stroke-width:30;stroke-linejoin:round;stroke-miterlimit:4;stroke-dasharray:none"
       d="m 624.84473,753.46142 c -21.14031,-8.54725 -52.99412,-51.80282 -62.67741,-85.11216 -11.06376,-38.058 -7.22557,-72.1165 10.2198,-90.68625 16.67448,-17.74916 34.59354,-16.19367 58.85604,5.10908 26.64221,23.39217 42.9243,55.95499 46.8116,93.61923 3.75692,36.40105 -0.61174,56.2984 -15.6662,71.35287 -12.18467,12.18467 -18.98594,13.22038 -37.54383,5.71723 z"
       id="path5034"
       inkscape:connector-curvature="0"
       inkscape:export-filename="C:\Users\baldwinjoe\Desktop\KingBingo Mockups\crown_icon.png"
       inkscape:export-xdpi="4.1727552"
       inkscape:export-ydpi="4.1727552" />
    <path
       style="fill:none;stroke:#000000;stroke-width:30;stroke-linejoin:round;stroke-miterlimit:4;stroke-dasharray:none"
       d="M 78.694299,978.55827 C 59.82298,968.67058 43.260174,940.64168 34.356219,903.52583 17.59437,833.65461 54.166724,764.7717 96.108104,787.21804 c 6.479836,3.4679 18.933626,18.47227 27.675096,33.34304 14.0833,23.95817 15.89357,32.685 15.89357,76.61873 0,40.92077 -2.02709,52.29602 -11.60537,65.12509 -15.44717,20.68981 -31.08533,25.83739 -49.377101,16.25337 l 0,0 z"
       id="path5036"
       inkscape:connector-curvature="0"
       inkscape:export-filename="C:\Users\baldwinjoe\Desktop\KingBingo Mockups\crown_icon.png"
       inkscape:export-xdpi="4.1727552"
       inkscape:export-ydpi="4.1727552" />
  </g>
</svg>
